<svg width="229" height="194" viewBox="0 0 229 194" fill="none" xmlns="http://www.w3.org/2000/svg">
<path d="M180.619 60.8756L174.399 57.8794L174.865 57.655L181.084 60.6515L180.619 60.8756Z" fill="#CBCBCB"/>
<path d="M175.194 60.8756L174.729 60.6515L180.948 57.655L181.413 57.8794L175.194 60.8756Z" fill="#CBCBCB"/>
<path d="M128.904 37.651L128.604 38.1823L130.361 38.9988L130.661 38.4676L128.904 37.651Z" fill="#CBCBCB"/>
<path d="M165.331 55.2512L161.834 53.626L162.134 53.0947L165.631 54.7199L165.331 55.2512ZM158.337 52.0007L154.84 50.3754L155.14 49.8441L158.637 51.4695L158.337 52.0007ZM151.343 48.7502L147.846 47.125L148.146 46.5937L151.643 48.2189L151.343 48.7502ZM144.349 45.4997L140.852 43.8745L141.152 43.3432L144.649 44.9685L144.349 45.4997ZM137.355 42.2493L133.858 40.6241L134.158 40.0928L137.655 41.718L137.355 42.2493Z" fill="#CBCBCB"/>
<path d="M169.128 56.3452L168.828 56.8764L170.585 57.693L170.885 57.1617L169.128 56.3452Z" fill="#CBCBCB"/>
<path d="M36.4707 77.6061C36.4707 77.7926 36.464 77.9774 36.4507 78.1607C36.376 79.218 36.0815 80.2528 35.5828 81.2108C35.5789 81.219 35.5744 81.2266 35.5705 81.2342C35.5473 81.2786 35.5234 81.323 35.499 81.3668C35.3506 81.6378 35.1861 81.9011 35.006 82.1558C34.1836 83.3247 33.0564 84.292 31.724 84.972C30.3916 85.6521 28.895 86.024 27.3665 86.055L27.4587 90.8611L28.6604 90.2873L28.875 90.6572L27.4677 91.3293L27.6397 100.256L27.6417 100.375L26.7125 100.562L26.7144 100.443L27.007 86.0555C25.7767 86.0395 24.5621 85.802 23.4338 85.3568C22.3056 84.9115 21.2861 84.2675 20.4345 83.4619C20.3759 83.407 20.3179 83.3503 20.2612 83.2942L20.2547 83.2878C19.5452 82.586 18.9714 81.7807 18.5575 80.9057C18.5665 80.9151 18.5762 80.9238 18.5852 80.9332C17.6497 78.9491 17.5863 76.7157 18.4079 74.6905C19.2295 72.6654 20.8739 71.0019 23.0042 70.041C23.0364 70.0264 23.0693 70.0123 23.1015 69.9977C25.2088 69.0771 27.6204 68.9082 29.8585 69.5245C32.0967 70.1407 33.9978 71.4971 35.1852 73.3248C35.2419 73.4112 35.2967 73.4995 35.3495 73.5883C36.0871 74.8218 36.4725 76.203 36.4707 77.6061Z" fill="#E5E5E5"/>
<path d="M35.2164 81.2388C41.9615 81.2388 47.4295 76.2795 47.4295 70.1619C47.4295 64.0443 41.9615 59.0851 35.2164 59.0851C28.4712 59.0851 23.0032 64.0443 23.0032 70.1619C23.0032 76.2795 28.4712 81.2388 35.2164 81.2388Z" fill="#01DA83"/>
<path opacity="0.2" d="M26.1986 62.7634C25.0594 65.1803 24.9048 67.8859 25.7626 70.3966C26.6203 72.9073 28.4344 75.0596 30.8808 76.4689C33.3272 77.8782 36.2463 78.4526 39.1167 78.0895C41.987 77.7264 44.6214 76.4495 46.5493 74.4869C45.8534 75.9635 44.8118 77.2852 43.4967 78.3605C42.1817 79.4358 40.6246 80.2389 38.9334 80.7142C37.2421 81.1895 35.4571 81.3257 33.7021 81.1132C31.9471 80.9007 30.264 80.3448 28.7694 79.4838C27.2748 78.6228 26.0045 77.4774 25.0465 76.1269C24.0884 74.7765 23.4655 73.2532 23.221 71.6628C22.9764 70.0723 23.1161 68.4527 23.6302 66.916C24.1444 65.3793 25.0207 63.9624 26.1986 62.7634Z" fill="#01DA83" fill-opacity="0.9"/>
<path d="M35.877 101.02L34.6297 100.703L34.6323 100.581L35.0061 82.1559L35.0248 81.2371L35.0252 81.2104L35.0906 77.9911L35.1852 73.3253V73.3247L35.2495 70.162H35.2838L35.3496 73.5884L35.4352 78.0481L35.4965 81.2124V81.2358L35.4991 81.3663V81.367L35.6176 87.5353L35.63 88.1482L35.8748 100.897L35.877 101.02Z" fill="white"/>
<path d="M37.1924 86.7832L35.1735 87.7472L35.4548 88.2319L37.4737 87.2679L37.1924 86.7832Z" fill="white"/>
<path d="M193.535 34.3133C178.12 33.4867 162.658 33.7023 147.278 34.9582C139.866 35.5659 132.335 36.2223 125.059 37.6888C119.199 38.87 112.397 40.8665 108.745 45.5166C107.981 46.4536 107.465 47.5383 107.24 48.6859C107.014 49.8335 107.084 51.013 107.445 52.1319C108.315 54.7828 110.481 56.9893 112.788 58.7176C118.096 62.6952 124.683 65.0099 130.567 68.17C141.31 73.9398 151.141 81.7167 157.452 91.5958C160.229 95.9431 162.87 101.723 159.778 106.514C156.749 111.206 149.987 112.823 144.472 113.586C137.559 114.541 130.439 114.282 123.498 113.747C115.889 113.103 108.321 112.098 100.828 110.735C86.1475 108.179 71.6008 104.927 56.7164 103.448C49.2533 102.651 41.7272 102.454 34.2259 102.858C27.4512 103.272 20.6186 104.244 14.2544 106.46C9.35017 108.167 4.12254 110.75 1.47349 115.058C-1.08008 119.21 -0.0841078 123.999 2.69641 127.83C6.04195 132.439 11.2588 135.598 16.6827 137.907C22.8582 140.536 29.4635 142.24 36.0773 143.689C39.4316 144.424 42.8041 145.088 46.1768 145.749C46.8804 145.887 47.1811 144.907 46.4749 144.768C39.6734 143.435 32.8523 142.098 26.2198 140.169C20.082 138.383 13.8009 136.096 8.77462 132.346C4.70837 129.313 0.84221 124.882 1.08222 119.845C1.32417 114.767 6.02193 111.221 10.6264 109.039C16.3806 106.311 22.9183 104.983 29.3244 104.288C36.6596 103.547 44.0569 103.456 51.4116 104.016C66.2609 105.041 80.7783 108.109 95.3375 110.784C109.481 113.384 124.067 115.791 138.562 115.125C144.307 114.86 150.463 114.114 155.535 111.483C157.858 110.279 159.952 108.581 161.133 106.371C162.196 104.268 162.532 101.923 162.097 99.6435C161.275 94.6363 157.995 89.9934 154.724 86.0051C151.137 81.6793 146.977 77.7707 142.337 74.3675C137.244 70.6504 131.753 67.4062 125.946 64.6837C122.867 63.2132 119.744 61.7993 116.809 60.0962C113.996 58.4632 111.22 56.4984 109.502 53.8474C108.016 51.5546 107.743 48.9378 109.291 46.6124C110.856 44.2604 113.554 42.62 116.214 41.4213C122.623 38.5332 130.074 37.7601 137.086 36.9679C152.142 35.2728 167.315 34.5867 182.482 34.915C186.169 34.9937 189.853 35.1321 193.535 35.3303C194.256 35.3688 194.253 34.3516 193.535 34.3133V34.3133Z" fill="#01DA83"/>
<path d="M183.756 1.71272L186.084 0.023655C184.275 -0.157349 183.532 0.737397 183.228 1.44559C181.815 0.913384 180.276 1.61087 180.276 1.61087L184.935 3.14484C184.7 2.57547 184.291 2.07869 183.756 1.71272Z" fill="white"/>
<path d="M172.455 7.05999L174.784 5.37093C172.975 5.18993 172.232 6.08467 171.927 6.79286C170.514 6.26066 168.976 6.95815 168.976 6.95815L173.635 8.49211C173.4 7.92275 172.991 7.42596 172.455 7.05999Z" fill="white"/>
<path d="M183.756 15.5265L186.084 13.8375C184.275 13.6565 183.532 14.5512 183.228 15.2594C181.815 14.7272 180.276 15.4247 180.276 15.4247L184.935 16.9586C184.7 16.3893 184.291 15.8925 183.756 15.5265Z" fill="white"/>
<path d="M148.848 18.029C152.723 18.029 155.864 15.1803 155.864 11.6663C155.864 8.15231 152.723 5.30363 148.848 5.30363C144.974 5.30363 141.833 8.15231 141.833 11.6663C141.833 15.1803 144.974 18.029 148.848 18.029Z" fill="#FF6583"/>
<path d="M170.847 31.2727H136.432C136.389 31.2732 136.346 31.2701 136.303 31.2635L152.58 5.69395C152.68 5.53467 152.824 5.40216 152.998 5.30996C153.172 5.21776 153.37 5.16917 153.572 5.16917C153.774 5.16917 153.972 5.21776 154.146 5.30996C154.321 5.40216 154.465 5.53467 154.564 5.69395L165.488 22.8525L166.011 23.6734L170.847 31.2727Z" fill="#01DA83"/>
<path d="M190.008 31.273H160.242L166.01 23.6743L166.425 23.1267L173.941 13.2243C174.074 13.0728 174.241 12.9484 174.43 12.8591C174.619 12.7698 174.827 12.7177 175.04 12.7062C175.254 12.6947 175.467 12.7239 175.667 12.7921C175.867 12.8603 176.048 12.9659 176.2 13.102C176.239 13.1406 176.275 13.1815 176.308 13.2243L190.008 31.273Z" fill="#01DA83"/>
<path d="M140.908 89.9171C144.17 91.3958 146.156 93.3489 146.156 95.491C146.156 100.106 136.949 103.846 125.592 103.846C120.654 103.846 116.124 103.139 112.579 101.96C116.344 103.667 121.81 104.742 127.895 104.742C139.252 104.742 148.459 101.001 148.459 96.3862C148.459 93.7779 145.516 91.4493 140.908 89.9171Z" fill="#F1F1F1"/>
<path d="M148.164 93.0868C151.845 94.7554 154.086 96.9592 154.086 99.3763C154.086 104.583 143.697 108.805 130.882 108.805C125.31 108.805 120.199 108.006 116.199 106.676C120.447 108.602 126.614 109.815 133.481 109.815C146.296 109.815 156.684 105.594 156.684 100.387C156.684 97.4433 153.364 94.8158 148.164 93.0868Z" fill="#F1F1F1"/>
<path d="M138.131 91.3133C140.429 92.3551 141.828 93.7311 141.828 95.2402C141.828 98.4913 135.342 101.127 127.34 101.127C124.223 101.163 121.122 100.714 118.173 99.7979C120.825 101 124.676 101.758 128.963 101.758C136.964 101.758 143.451 99.1221 143.451 95.8709C143.451 94.0333 141.378 92.3928 138.131 91.3133Z" fill="#F1F1F1"/>
<path d="M105.839 90.7164C105.839 90.7164 106.344 97.4114 120.821 97.4114C135.298 97.4114 139.62 90.7164 139.62 90.7164H105.839Z" fill="#252525"/>
<path d="M126.388 73.1505C124.298 71.7105 121.674 71.0597 119.067 71.3345C121.397 71.8439 123.455 73.0813 124.879 74.8295C126.303 76.5777 127.003 78.7249 126.856 80.8945C126.708 83.064 125.723 85.1171 124.073 86.6936C122.423 88.27 120.214 89.269 117.833 89.5152C120.11 90.0139 122.508 89.7861 124.622 88.8702C126.736 87.9543 128.438 86.4061 129.442 84.4859C130.446 82.5657 130.69 80.3906 130.134 78.3263C129.578 76.262 128.255 74.4343 126.388 73.1505Z" fill="#252525"/>
<path d="M121.644 70.1262H120.657V91.4357H121.644V70.1262Z" fill="#252525"/>
<path d="M186.513 54.2933L186.507 54.285L186.494 53.7645L189.586 49.6926L186.498 53.3749L186.487 53.4849L186.381 49.3229L189.052 45.1012L186.373 48.5918L186.401 39.9691L186.401 39.9404L186.4 39.9686L186.223 46.7644L183.789 44.004L186.215 47.3499L186.162 51.0728L183.922 47.4394L186.154 51.6201L186.124 53.6902L186.042 59.4253L186.036 59.8538C186.243 59.8552 186.447 59.8521 186.649 59.8445L186.509 54.3358L186.513 54.2933Z" fill="#CBCBCB"/>
<path d="M171.707 56.0837L171.702 56.0755L171.688 55.555L174.78 51.483L171.692 55.1654L171.681 55.2754L171.575 51.1134L174.246 46.8917L171.568 50.3822L171.595 41.7596L171.595 41.7309L171.595 41.7591L171.417 48.5549L168.983 45.7944L171.409 49.1403L171.356 52.8632L169.116 49.2299L171.348 53.4105L171.318 55.4806L171.236 61.2157L171.23 61.6443C171.437 61.6457 171.641 61.6426 171.843 61.6349L171.703 56.1262L171.707 56.0837Z" fill="#CBCBCB"/>
<path d="M178.945 50.4139L178.94 50.4057L178.927 49.8852L182.019 45.8132L178.93 49.4956L178.919 49.6056L178.814 45.4436L181.484 41.2219L178.806 44.7124L178.834 36.0898L178.834 36.0611L178.833 36.0893L178.656 42.8851L176.221 40.1247L178.648 43.4706L178.595 47.1934L176.355 43.5601L178.586 47.7407L178.557 49.8108L178.475 55.5459L178.469 55.9745C178.675 55.9759 178.879 55.9728 179.082 55.9651L178.941 50.4564L178.945 50.4139Z" fill="#CBCBCB"/>
<path d="M56.6621 149.503C58.8426 149.503 60.6103 147.9 60.6103 145.922C60.6103 143.945 58.8426 142.341 56.6621 142.341C54.4815 142.341 52.7138 143.945 52.7138 145.922C52.7138 147.9 54.4815 149.503 56.6621 149.503Z" fill="#FF3951"/>
<path d="M74.064 157.36C72.984 157.36 72.072 157.192 71.328 156.856C70.584 156.52 70.02 156.016 69.636 155.344C69.252 154.648 69.06 153.784 69.06 152.752V137.272H74.46V152.104C74.46 152.56 74.556 152.896 74.748 153.112C74.964 153.328 75.288 153.436 75.72 153.436C75.912 153.436 76.116 153.412 76.332 153.364C76.548 153.316 76.752 153.256 76.944 153.184L77.448 156.64C76.992 156.88 76.476 157.06 75.9 157.18C75.324 157.3 74.712 157.36 74.064 157.36ZM87.7645 157.468C85.0765 157.468 83.0485 156.868 81.6805 155.668C80.3125 154.468 79.6285 152.716 79.6285 150.412V148.972C79.6285 147.988 79.7605 147.184 80.0245 146.56C80.2885 145.912 80.6125 145.324 80.9965 144.796C81.3805 144.268 81.6925 143.8 81.9325 143.392C82.1965 142.96 82.3285 142.516 82.3285 142.06C82.3285 141.628 82.2205 141.328 82.0045 141.16C81.8125 140.968 81.5485 140.872 81.2125 140.872C80.9725 140.872 80.7205 140.908 80.4565 140.98C80.2165 141.052 79.9405 141.16 79.6285 141.304L78.7645 137.92C79.4365 137.56 80.1565 137.32 80.9245 137.2C81.7165 137.056 82.4125 136.984 83.0125 136.984C84.0685 136.984 84.9085 137.152 85.5325 137.488C86.1805 137.824 86.6485 138.304 86.9365 138.928C87.2245 139.552 87.3685 140.296 87.3685 141.16C87.3685 141.904 87.2605 142.564 87.0445 143.14C86.8285 143.692 86.5525 144.268 86.2165 144.868C85.9045 145.42 85.6165 145.936 85.3525 146.416C85.1125 146.896 84.9925 147.592 84.9925 148.504V149.944C84.9925 150.712 85.1005 151.348 85.3165 151.852C85.5565 152.332 85.8805 152.692 86.2885 152.932C86.7205 153.148 87.2245 153.256 87.8005 153.256C88.7365 153.256 89.4325 152.992 89.8885 152.464C90.3445 151.912 90.5725 151.132 90.5725 150.124V137.272H95.9365V150.268C95.9365 152.644 95.2405 154.444 93.8485 155.668C92.4565 156.868 90.4285 157.468 87.7645 157.468ZM85.0496 134.572V132.772C85.3856 132.676 85.7576 132.544 86.1656 132.376C86.5736 132.208 86.9336 131.98 87.2456 131.692C87.5576 131.404 87.7136 131.044 87.7136 130.612C87.7136 130.276 87.6176 130.012 87.4256 129.82C87.2336 129.628 86.9936 129.532 86.7056 129.532C86.5136 129.532 86.3096 129.568 86.0936 129.64C85.8776 129.712 85.6856 129.784 85.5176 129.856L84.8336 127.444C85.3136 127.036 85.9136 126.772 86.6336 126.652C87.3296 126.508 87.9176 126.436 88.3976 126.436C89.4776 126.436 90.3296 126.688 90.9536 127.192C91.5536 127.696 91.8536 128.44 91.8536 129.424C91.8536 129.952 91.7216 130.444 91.4576 130.9C91.1696 131.356 90.7376 131.728 90.1616 132.016L90.0176 131.08H96.8216V134.572H85.0496ZM106.189 157V143.968C106.189 142.96 105.949 142.228 105.469 141.772C105.013 141.316 104.257 141.088 103.201 141.088C102.409 141.088 101.677 141.196 101.005 141.412C100.357 141.628 99.7452 141.892 99.1692 142.204V137.884C99.6972 137.644 100.441 137.404 101.401 137.164C102.361 136.924 103.489 136.804 104.785 136.804C106.105 136.804 107.269 136.996 108.277 137.38C109.309 137.764 110.113 138.412 110.689 139.324C111.289 140.212 111.589 141.436 111.589 142.996V157H106.189ZM127.846 157V144.184C127.846 143.032 127.534 142.204 126.91 141.7C126.286 141.196 125.326 140.944 124.03 140.944C122.782 140.944 121.558 141.136 120.358 141.52C119.182 141.88 118.162 142.312 117.298 142.816V138.352C117.994 138.016 118.978 137.68 120.25 137.344C121.522 136.984 122.986 136.804 124.642 136.804C125.914 136.804 127.054 136.96 128.062 137.272C129.094 137.584 129.838 138.196 130.294 139.108C131.302 139.42 132.022 140.032 132.454 140.944C132.91 141.832 133.138 142.984 133.138 144.4V157H127.846ZM121.942 157.36C119.878 157.36 118.282 156.868 117.154 155.884C116.05 154.9 115.498 153.52 115.498 151.744C115.498 149.824 116.182 148.288 117.55 147.136C118.942 145.984 121.126 145.288 124.102 145.048L128.71 144.688V148.576L124.714 148.972C123.274 149.116 122.266 149.404 121.69 149.836C121.138 150.268 120.862 150.844 120.862 151.564C120.862 152.284 121.09 152.824 121.546 153.184C122.026 153.544 122.638 153.724 123.382 153.724C123.67 153.724 123.958 153.7 124.246 153.652C124.534 153.58 124.798 153.508 125.038 153.436L125.506 156.82C125.05 156.988 124.51 157.12 123.886 157.216C123.262 157.312 122.614 157.36 121.942 157.36ZM130.186 141.196L127.234 138.712C128.074 138.424 128.734 138.064 129.214 137.632C129.694 137.176 129.946 136.624 129.97 135.976H134.686C134.686 136.72 134.53 137.44 134.218 138.136C133.93 138.808 133.45 139.408 132.778 139.936C132.13 140.464 131.266 140.884 130.186 141.196ZM127.608 166.54C125.688 166.54 124.284 166.252 123.396 165.676C122.508 165.1 122.064 164.344 122.064 163.408V162.796C122.064 162.388 121.956 162.136 121.74 162.04C121.524 161.968 121.236 161.98 120.876 162.076L120.624 159.664C120.96 159.52 121.392 159.424 121.92 159.376C122.448 159.328 122.88 159.304 123.216 159.304C124.272 159.304 125.04 159.496 125.52 159.88C125.976 160.264 126.204 160.804 126.204 161.5V162.328C126.204 162.736 126.3 163.048 126.492 163.264C126.66 163.504 126.984 163.624 127.464 163.624C127.968 163.624 128.316 163.504 128.508 163.264C128.7 163.048 128.796 162.736 128.796 162.328V159.412H133.188V162.904C133.188 164.08 132.744 164.98 131.856 165.604C130.968 166.228 129.552 166.54 127.608 166.54ZM127.968 134.536V126.364H132.936V134.536H127.968ZM145.038 157.468C143.622 157.468 142.194 157.312 140.754 157C139.338 156.688 138.078 156.244 136.974 155.668L138.486 151.384C138.966 151.648 139.542 151.924 140.214 152.212C140.886 152.5 141.618 152.74 142.41 152.932C143.202 153.124 144.006 153.22 144.822 153.22C145.782 153.22 146.502 153.088 146.982 152.824C147.486 152.536 147.738 152.104 147.738 151.528C147.738 151.096 147.57 150.748 147.234 150.484C146.922 150.196 146.454 149.932 145.83 149.692C145.206 149.428 144.462 149.152 143.598 148.864C142.326 148.408 141.234 147.916 140.322 147.388C139.41 146.86 138.702 146.212 138.198 145.444C137.718 144.676 137.478 143.716 137.478 142.564C137.478 141.244 137.814 140.164 138.486 139.324C139.158 138.484 140.106 137.86 141.33 137.452C142.554 137.02 143.982 136.804 145.614 136.804C146.958 136.804 148.17 136.912 149.25 137.128C150.33 137.344 151.17 137.62 151.77 137.956V142.204C151.362 142.012 150.822 141.82 150.15 141.628C149.502 141.436 148.794 141.28 148.026 141.16C147.282 141.016 146.562 140.944 145.866 140.944C144.882 140.944 144.138 141.076 143.634 141.34C143.13 141.604 142.878 141.976 142.878 142.456C142.878 142.84 143.046 143.164 143.382 143.428C143.742 143.692 144.258 143.944 144.93 144.184C145.602 144.4 146.406 144.676 147.342 145.012C148.59 145.444 149.646 145.924 150.51 146.452C151.374 146.98 152.022 147.628 152.454 148.396C152.91 149.164 153.138 150.112 153.138 151.24C153.138 152.32 152.886 153.34 152.382 154.3C151.902 155.236 151.074 156.004 149.898 156.604C148.722 157.18 147.102 157.468 145.038 157.468ZM160.287 145.372C159.183 145.372 158.307 145.204 157.659 144.868C157.011 144.532 156.543 144.088 156.255 143.536C155.967 142.96 155.823 142.36 155.823 141.736C155.823 141.328 155.883 140.908 156.003 140.476C156.123 140.02 156.303 139.576 156.543 139.144L160.467 139.648C160.419 139.816 160.371 139.996 160.323 140.188C160.299 140.38 160.287 140.584 160.287 140.8C160.287 141.112 160.383 141.364 160.575 141.556C160.767 141.724 161.103 141.808 161.583 141.808H165.651V145.372H160.287ZM160.287 155.452C159.183 155.452 158.307 155.284 157.659 154.948C157.011 154.612 156.543 154.168 156.255 153.616C155.967 153.04 155.823 152.44 155.823 151.816C155.823 151.408 155.883 150.988 156.003 150.556C156.123 150.1 156.303 149.656 156.543 149.224L160.467 149.728C160.419 149.896 160.371 150.076 160.323 150.268C160.299 150.46 160.287 150.664 160.287 150.88C160.287 151.192 160.383 151.444 160.575 151.636C160.767 151.804 161.103 151.888 161.583 151.888H165.651V155.452H160.287ZM178.697 157.468C175.577 157.468 173.309 156.748 171.893 155.308C170.501 153.844 169.805 151.732 169.805 148.972V137.272H175.205V149.26C175.205 150.532 175.481 151.504 176.033 152.176C176.609 152.824 177.497 153.148 178.697 153.148C179.897 153.148 180.773 152.824 181.325 152.176C181.901 151.504 182.189 150.532 182.189 149.26V137.272H187.589V148.972C187.589 151.732 186.881 153.844 185.465 155.308C184.073 156.748 181.817 157.468 178.697 157.468ZM201.514 157.468C198.394 157.468 196.126 156.748 194.71 155.308C193.318 153.844 192.622 151.732 192.622 148.972V137.272H198.022V149.26C198.022 150.532 198.298 151.504 198.85 152.176C199.426 152.824 200.314 153.148 201.514 153.148C202.714 153.148 203.59 152.824 204.142 152.176C204.718 151.504 205.006 150.532 205.006 149.26V137.272H210.406V148.972C210.406 151.732 209.698 153.844 208.282 155.308C206.89 156.748 204.634 157.468 201.514 157.468Z" fill="white"/>
</svg>
